<svg width="225" height="225" viewBox="0 0 225 225" fill="none" xmlns="http://www.w3.org/2000/svg">
<path d="M225 112.5C225 174.632 174.632 225 112.5 225C50.368 225 0 174.632 0 112.5C0 50.368 50.368 0 112.5 0C174.632 0 225 50.368 225 112.5Z" fill="#89898A"/>
<path fill-rule="evenodd" clip-rule="evenodd" d="M112.5 215C169.109 215 215 169.109 215 112.5C215 55.8908 169.109 10 112.5 10C55.8908 10 10 55.8908 10 112.5C10 169.109 55.8908 215 112.5 215ZM112.5 225C174.632 225 225 174.632 225 112.5C225 50.368 174.632 0 112.5 0C50.368 0 0 50.368 0 112.5C0 174.632 50.368 225 112.5 225Z" fill="#D9D9D9" fill-opacity="0.24"/>
<path d="M112 113C102.925 113 95.1562 109.769 88.6937 103.306C82.2312 96.8438 79 89.075 79 80C79 70.925 82.2312 63.1563 88.6937 56.6938C95.1562 50.2313 102.925 47 112 47C121.075 47 128.844 50.2313 135.306 56.6938C141.769 63.1563 145 70.925 145 80C145 89.075 141.769 96.8438 135.306 103.306C128.844 109.769 121.075 113 112 113ZM46 179V155.9C46 151.225 47.2045 146.927 49.6135 143.005C52.0225 139.084 55.218 136.095 59.2 134.037C67.725 129.775 76.3875 126.577 85.1875 124.443C93.9875 122.309 102.925 121.244 112 121.25C121.075 121.25 130.012 122.317 138.812 124.451C147.612 126.585 156.275 129.781 164.8 134.037C168.787 136.1 171.986 139.092 174.395 143.013C176.804 146.935 178.005 151.231 178 155.9V179H46Z" fill="#545454"/>
</svg>
